<?xml version="1.0" encoding="utf-8"?>
<!-- Generator: Adobe Illustrator 23.0.6, SVG Export Plug-In . SVG Version: 6.00 Build 0)  -->
<svg version="1.1" id="Laag_1" xmlns="http://www.w3.org/2000/svg" xmlns:xlink="http://www.w3.org/1999/xlink" x="0px" y="0px"
	 viewBox="0 0 200 200" style="enable-background:new 0 0 200 200;" xml:space="preserve">
<g>
	<path d="M79.7,69.6c0.1-1.9,0.2-2.9,0.2-3.8c0.2-9.2,3.5-12,12.7-11c1.2,0.1,2.9-1,3.8-2c4.1-4.6,9.6-5.2,14.7-1.7
		c1.3,0.9,3.6,1.2,5.1,0.7c4.5-1.3,8-0.2,11.4,2.9c1.3,1.2,3.5,2.2,5.3,2.2c8.5-0.2,11.7,2.5,11.7,11c0,18,0.4,36-0.4,54
		c-0.3,6.7-2.6,13.7-5.6,19.8c-3.2,6.5-9.7,9.4-17.1,9.5c-8.7,0.1-17.3,0.1-26,0c-8.9,0-14.7-5.7-20.2-11.6
		c-11.3-12.3-16.4-27.7-20.2-43.4c-0.7-2.7,1-6.1,2.1-9c1.7-4.8,4.2-9.5,5.6-14.4c2.5-8.7,6.9-10.5,14.1-5
		C77.7,68.2,78.3,68.6,79.7,69.6z M84.6,100.4c-0.2,0.7-0.3,1.4-0.5,2c1.4,0.6,3,0.9,4.3,1.7c6,3.8,11.9,7.6,17.7,11.7
		c0.8,0.5,0.4,2.6,0.6,3.9c-1.3-0.3-3.1-0.2-3.8-1c-5.9-6.7-13.6-9.9-22-12.1c-6.2-1.7-8-3.8-7.7-10.3c0.3-4.8,1.6-9.5,2.2-14.3
		c0.4-2.9,0.8-6.1,0.1-8.8c-0.5-1.7-3.2-2.8-4.9-4.2c-1.1,1.4-2.5,2.7-3.2,4.3c-1.2,2.6-1.4,5.7-2.9,7.9c-6.3,9.4-4.6,18.7-0.9,28.4
		c4.6,12,10.2,23.2,20.1,31.7c4.2,3.6,8.8,5.6,14.6,5.4c7.5-0.3,15-0.1,22.5-0.1c8.3-0.1,14-3.9,17-11.5c4.7-11.7,2-23.9,2.7-35.9
		c-8.7,0.1-8.5,0.7-16.2,3c-3.5,1.1-7.8-1.2-11.8-1.2c-4,0-9.4,2.9-11.6,1.2C95,98,89.7,102.9,84.6,100.4z M110,75.9
		c0-5.6,0-11.3,0-16.9c0-3.6-1.4-5.8-5.2-5.8c-4.1-0.1-5.5,2.2-5.5,6c0.1,11.3,0,22.6,0,33.8c0,3.6,1.4,5.8,5.2,5.9
		c3.9,0,5.6-2.2,5.5-6.1C109.9,87.2,110,81.6,110,75.9z M125.1,77.1c0-5.3-0.1-10.6,0-15.9c0.1-3.5-1.4-5.4-4.9-5.5
		c-3.6-0.1-5.6,1.6-5.6,5.4c0,10.8,0,21.6,0,32.4c0,3.7,1.8,5.7,5.4,5.6c3.8-0.1,5.1-2.3,5.1-5.9C125,87.7,125.1,82.4,125.1,77.1z
		 M94.7,77.6c0-4.3,0-8.7,0-13c0-3.6-1.5-5.9-5.2-5.9c-3.6,0-5.4,1.9-5.4,5.7c0.1,8.8,0.1,17.6,0,26.5c0,3.7,1.7,5.6,5.4,5.6
		c3.8,0,5.2-2.3,5.2-5.8C94.6,86.2,94.7,81.9,94.7,77.6z M140.4,78c0-4,0-8,0-12c0-3.5-2-5.1-5.4-5c-3.2,0.1-5,1.5-5,4.8
		c0,8,0,15.9,0,23.9c0,3.6,2,5.1,5.4,5.1c3.1,0,5-1.6,5.1-4.9C140.5,86,140.4,82,140.4,78z"/>
</g>
</svg>
