<?xml version="1.0" encoding="utf-8"?>
<!-- Generator: Adobe Illustrator 23.0.6, SVG Export Plug-In . SVG Version: 6.00 Build 0)  -->
<svg version="1.1" id="Laag_1" xmlns="http://www.w3.org/2000/svg" xmlns:xlink="http://www.w3.org/1999/xlink" x="0px" y="0px"
	 viewBox="0 0 200 200" style="enable-background:new 0 0 200 200;" xml:space="preserve">
<path d="M76.2,87.5c0-10.5,0-20.2,0-29.8c0-11.2,3.7-14.2,14.8-12.3c0.5,0.1,1-0.1,2-0.1c0.2-6.1-1-13.2,7.1-15.5
	c5.2-1.5,9.1,0.8,12,5.2c2.1-0.7,4.1-1.7,6.1-2.1c5.6-1.2,10.9,3.2,11.2,9.1c0.1,2.2,0,4.3,0,6.5c0,2,0,3.9,0,6.6
	c1.7-0.5,2.9-0.9,4.1-1.3c6.6-1.9,12.8,2.5,12.8,9.3c0.1,27,0.2,54-0.2,81c-0.1,7.6-0.6,15.8-7.5,20.8c-3.8,2.8-8.7,5.2-13.3,5.6
	c-10.3,0.8-20.6,0.1-31,0.3c-8.1,0.1-14.4-3.2-19.7-9.2c-11.7-13.3-17.4-29.3-20.9-46.3c-0.6-2.8,0.8-6.2,1.7-9.1
	c1.6-4.7,3.8-9.2,5.3-13.9c2.1-6.8,5.8-8.8,12.4-6C73.8,86.4,74.6,86.8,76.2,87.5z M141.4,103.8c0.2,0,0.5,0,0.7,0
	c0-13.2,0-26.3,0-39.5c0-3.9-1.5-6.6-5.7-6.7c-4.3,0-5.7,2.8-5.7,6.7c0,6.8,0,13.7,0,20.5c0,5.2,0.2,10.3-0.1,15.5
	c-0.1,1.3-1.8,2.6-2.8,3.9c-0.8-1.2-2-2.4-2.4-3.7c-0.4-1.7-0.2-3.6-0.2-5.5c0-16.8,0-33.7,0-50.5c0-5.3-1.9-7.6-5.8-7.4
	c-4.7,0.2-5.4,3.4-5.4,7.3c0.1,17,0.1,34-0.1,51c0,2.2-1.7,4.4-2.6,6.6c-0.9-2.2-2.6-4.4-2.6-6.6c-0.2-18.3-0.1-36.7-0.1-55
	c0-3.9-1.4-6.7-5.7-6.6c-4.2,0-5.7,2.7-5.7,6.6c0.1,7.2,0,14.3,0,21.5c0,11.3,0.1,22.7-0.1,34c0,1.4-1.7,2.7-2.6,4.1
	c-0.9-1.3-2.1-2.5-2.8-4c-0.4-1-0.1-2.3-0.1-3.5c0-12-0.1-24,0-36c0-4.1-0.8-7.5-5.7-7.7c-3.8-0.2-5.7,2.6-5.7,7.7
	c0,20.8,0.1,41.7,0,62.5c0,2.1-1,4.2-1.6,6.2c-2-1.8-4.9-3.2-5.7-5.4c-1-2.9-0.7-6.5-0.4-9.8c0.4-4.1,2-8.2,1.9-12.3
	c0-2.6-1.6-5.8-3.5-7.6c-2.2-2-4.9-1.3-6.1,2.2c-2.1,6-4.5,11.8-6.7,17.7c-0.5,1.5-1.1,3.4-0.7,4.8c4.1,15.3,8.7,30.4,19.4,42.9
	c5,5.9,11,8.9,18.7,8.8c8.7-0.1,17.3,0,26,0c12.7,0,19.1-5.4,19.6-18.1C141.9,133.5,141.4,118.6,141.4,103.8z"/>
</svg>
