<?xml version="1.0" encoding="utf-8"?>
<!-- Generator: Adobe Illustrator 23.0.6, SVG Export Plug-In . SVG Version: 6.00 Build 0)  -->
<svg version="1.1" id="Laag_1" xmlns="http://www.w3.org/2000/svg" xmlns:xlink="http://www.w3.org/1999/xlink" x="0px" y="0px"
	 viewBox="0 0 200 200" style="enable-background:new 0 0 200 200;" xml:space="preserve">
<path d="M137.6,27.2C133.9,13.9,120.5,0,99.4,0S64.9,12.7,61.2,27.2c0,0-18.9,81.4-26.2,109.5C28.1,162.9,61.4,190,99.4,190
	s72.7-26.2,65.7-53.3C157.7,108.2,137.6,27.2,137.6,27.2z"/>
<path d="M161.4,113.2c1.4,5.5,2.7,10.7,3.9,15.3c2.3,4.9,3.6,10.1,3.6,15.5c0,0.7,0,1.3-0.1,2c-0.1,25.4-33.4,48-69.4,48
	c-36,0-67.9-23.3-68.1-48.1c0-0.6-0.1-1.3-0.1-1.9c0-5.4,1.2-10.5,3.5-15.4c1.1-4.6,2.4-9.7,3.7-15.2c-9.3,9-14.8,20.1-14.8,32.2
	c0,30.1,34.2,54.4,76.4,54.4s76.4-24.4,76.4-54.4C176.4,133.5,170.8,122.2,161.4,113.2z"/>
</svg>
