<?xml version="1.0" encoding="utf-8"?>
<!-- Generator: Adobe Illustrator 23.0.6, SVG Export Plug-In . SVG Version: 6.00 Build 0)  -->
<svg version="1.1" id="Laag_1" xmlns="http://www.w3.org/2000/svg" xmlns:xlink="http://www.w3.org/1999/xlink" x="0px" y="0px"
	 viewBox="0 0 200 200" style="enable-background:new 0 0 200 200;" xml:space="preserve">
<style type="text/css">
	.st0{fill:#FFFFFF;}
	.st1{fill:#333333;}
</style>
<g>
	<path class="st0" d="M5,197c-1.1,0-2-0.9-2-2V5c0-1.1,0.9-2,2-2h190c1.1,0,2,0.9,2,2v190c0,1.1-0.9,2-2,2H5z"/>
	<path class="st1" d="M195,5v190H5V5H195 M195,1H5C2.8,1,1,2.8,1,5v190c0,2.2,1.8,4,4,4h190c2.2,0,4-1.8,4-4V5
		C199,2.8,197.2,1,195,1L195,1z"/>
</g>
<g>
	<circle cx="50" cy="50" r="12"/>
</g>
<g>
	<circle cx="150" cy="150" r="12"/>
</g>
<g>
	<circle cx="100" cy="100" r="12"/>
</g>
</svg>
