<?xml version="1.0" encoding="utf-8"?>
<!-- Generator: Adobe Illustrator 23.0.6, SVG Export Plug-In . SVG Version: 6.00 Build 0)  -->
<svg version="1.1" id="Laag_1" xmlns="http://www.w3.org/2000/svg" xmlns:xlink="http://www.w3.org/1999/xlink" x="0px" y="0px"
	 viewBox="0 0 200 200" style="enable-background:new 0 0 200 200;" xml:space="preserve">
<path d="M90.1,84.3c0.6-2.6,1.2-5.2,1.7-7.8c2.5-13.2,4.9-26.5,7.3-39.7c1.2-6.7,4.5-10,9.8-10c5.4,0,8.9,3.6,8.1,9
	c-1.6,11.7-3.5,23.3-5.2,34.9c-0.5,3.1-0.6,6.2-1,9.8c7.4-1.7,12.7-0.1,15.1,6.9c1.9,0,3.6,0,5.2,0c6.3,0,9.2,2.8,9.1,9.2
	c-0.2,16.8-0.3,33.6-1.1,50.4c-0.3,5.3-1.9,10.9-4.1,15.7c-3.2,6.8-9,10.4-16.9,10.3c-7.3-0.1-14.7-0.5-22,0.1
	c-10.5,0.9-17.6-4.3-23.3-11.9c-8.2-11-11.7-24-11.5-37.5c0.1-5.2,3.1-10.9,6.4-15.2c3.8-5.2,4.1-10.2,3-15.8
	C67.3,75.4,63.7,58.2,60.2,41c-1.4-6.7,0.3-10.5,5.2-11.6c5.9-1.3,10.2,1.4,11.7,7.8c3.5,14,6.8,28.1,10.2,42.1c0.4,1.7,1,3.3,1.5,5
	C89.3,84.3,89.7,84.3,90.1,84.3z M103.9,109.6c-5.1,2.7-9.6,5-14.1,7.6c-4.9,2.9-5.1,4.4-1.7,9.1c2.9,3.9,5.9,7.7,8.6,11.6
	c0.5,0.8-0.1,2.3-0.3,3.5c-1-0.3-2.5-0.3-3-1c-3.8-4.8-7.7-9.6-11-14.8c-2.6-3.9-1.6-7.8,2.4-10.4c3.9-2.6,8.2-4.5,12.1-7.1
	c2.6-1.7,5.4-3.6,7-6.1c1-1.6-0.2-4.5-0.4-6.9c-1.8,0.2-3.7,0.1-5.4,0.7c-4.7,1.5-9.3,3.6-14.1,5c-9.6,2.7-19.2,14.9-18.6,24.8
	c0.7,11.1,3.4,21.9,9.6,31.2c5.2,7.8,11.9,13.3,22.3,12.5c5.8-0.5,11.7-0.1,17.5-0.1c10.8,0,17.1-4,19-14.5
	c1.8-10.2,1.6-20.7,2.2-30.7c-4.9-0.4-8.4-0.7-12.2-1c-4.6,5.3-8.1,6.9-13,5.2C101.1,125.1,104.4,116.8,103.9,109.6z M86.7,94.9
	c-1-4.2-1.9-7.9-2.8-11.6c-3.6-15-7.3-30-10.9-45c-0.8-3.3-2.7-5.5-6.3-4.8c-4,0.8-2.6,4-2.2,6.4c1.6,8.2,3.3,16.3,4.9,24.4
	c2.2,11,4.3,22,6.6,33.5C79.7,96.8,83.2,95.9,86.7,94.9z M105,88.7c2.6-17.5,5.2-35.1,7.6-52.7c0.2-1.4-1.4-4.3-2.4-4.4
	c-1.8-0.2-4,0.9-5.5,2.1c-0.9,0.8-1,2.7-1.3,4.2c-1,5.1-1.9,10.1-2.9,15.2c-2.4,12.7-4.8,25.4-7.3,38.5
	C97.3,90.5,100.8,89.7,105,88.7z M121.4,91.3c0.6-3.8-0.3-6.8-4.7-7.2c-4.5-0.4-6.2,2.3-6.5,6.4c-0.6,8.6-1.2,17.3-2,25.9
	c-0.3,3.9,0.3,7.1,4.9,7.7c3.9,0.5,6.2-1.9,6.6-6.9C120.3,108.6,120.8,100,121.4,91.3z M136.5,104.2c0.2-2.5,0.5-5,0.4-7.5
	c-0.1-3.3-2.1-5.2-5.4-5.2c-3.2-0.1-5.5,1.2-5.7,4.8c-0.4,5.6-0.9,11.3-1.2,16.9c-0.2,3.6,1.5,5.8,5.1,6c3.5,0.2,5.8-1.5,6.2-5.1
	C136.2,110.9,136.3,107.6,136.5,104.2z"/>
</svg>
